<?xml version="1.0" standalone="no"?>
<!DOCTYPE svg PUBLIC "-//W3C//DTD SVG 20010904//EN"
 "http://www.w3.org/TR/2001/REC-SVG-20010904/DTD/svg10.dtd">
<svg version="1.0" xmlns="http://www.w3.org/2000/svg"
 width="501.000000pt" height="501.000000pt" viewBox="0 0 501.000000 501.000000"
 preserveAspectRatio="xMidYMid meet">
<metadata>
Created by potrace 1.14, written by Peter Selinger 2001-2017
</metadata>
<g transform="translate(0.000000,501.000000) scale(0.100000,-0.100000)"
fill="#000000" stroke="none">
<path d="M2404 4230 c-161 -42 -323 -149 -430 -285 -25 -31 -35 -37 -45 -28
-8 6 -42 27 -75 46 -127 71 -285 104 -421 87 -286 -36 -525 -218 -624 -474
-41 -107 -52 -265 -24 -378 16 -67 71 -194 97 -225 7 -8 7 -17 2 -22 -173
-152 -238 -231 -304 -364 -66 -133 -89 -223 -97 -373 -15 -311 109 -604 376
-885 280 -297 631 -471 1099 -546 153 -25 577 -25 712 0 335 63 585 181 770
367 127 128 219 274 270 433 l22 67 74 0 c328 0 595 217 685 556 27 101 36
281 19 378 -34 190 -123 350 -255 459 -256 211 -636 205 -912 -15 -35 -27 -78
-68 -97 -90 -37 -43 -39 -43 -95 4 l-32 28 34 57 c109 181 144 317 134 518
-15 333 -229 608 -533 685 -101 26 -252 26 -350 0z m246 -220 c144 -21 281
-124 348 -262 42 -87 54 -146 54 -253 0 -248 -133 -461 -352 -563 -64 -30 -89
-36 -168 -40 -114 -6 -197 14 -280 67 -251 163 -302 533 -112 815 73 108 213
203 340 230 80 18 89 18 170 6z m-1031 -211 c72 -16 149 -60 211 -119 l59 -55
-15 -75 c-11 -53 -14 -108 -11 -187 l5 -112 -31 -6 c-256 -50 -491 -119 -627
-184 l-65 -31 -32 38 c-46 52 -92 151 -103 219 -43 260 204 522 490 522 41 1
95 -4 119 -10z m351 -779 c111 -184 318 -300 535 -300 87 0 231 39 305 84 34
20 66 36 72 36 15 0 141 -96 211 -161 l57 -54 -14 -48 c-17 -55 -10 -86 26
-111 53 -37 109 -11 128 61 52 189 194 346 365 403 93 31 229 31 311 1 83 -31
122 -57 177 -114 88 -92 137 -228 137 -378 0 -278 -159 -496 -395 -540 -80
-15 -215 -5 -294 22 -35 12 -92 41 -127 65 -64 44 -80 49 -120 38 -30 -8 -59
-64 -50 -98 7 -28 125 -122 184 -146 30 -12 32 -16 27 -44 -16 -78 -59 -182
-103 -250 -67 -103 -171 -216 -231 -250 -9 -5 -18 -12 -21 -16 -27 -36 -270
-142 -380 -166 -36 -8 -99 -22 -140 -31 -105 -23 -442 -23 -600 0 -445 66
-776 227 -1021 498 -134 147 -201 257 -254 415 -36 108 -45 277 -20 389 23
104 91 235 166 318 149 165 415 309 719 388 72 19 260 56 296 58 7 1 31 -30
54 -69z"/>
<path d="M1537 2806 c-21 -8 -48 -22 -59 -33 -33 -28 -111 -201 -116 -255 -14
-148 144 -247 265 -165 58 39 135 201 137 287 2 122 -115 207 -227 166z"/>
<path d="M2335 2468 c-37 -20 -67 -53 -85 -93 -62 -136 -70 -160 -70 -208 0
-159 185 -235 292 -121 29 31 90 157 108 223 19 73 -21 160 -91 196 -33 17
-125 19 -154 3z"/>
<path d="M1596 2144 c-61 -61 -73 -153 -32 -237 l24 -49 -25 -61 c-14 -34 -28
-66 -32 -70 -12 -12 -67 38 -114 102 -53 72 -64 80 -110 81 -44 0 -82 -31 -93
-76 -11 -42 29 -107 121 -199 92 -93 166 -136 282 -165 139 -35 298 -19 422
44 56 29 71 49 71 96 0 44 -16 69 -56 86 -31 13 -39 12 -91 -7 -80 -30 -196
-53 -226 -45 l-26 6 25 63 c25 64 45 87 76 87 44 0 149 68 179 116 49 80 10
147 -122 209 -70 33 -96 39 -163 43 -78 4 -82 3 -110 -24z"/>
</g>
</svg>
