<?xml version="1.0" encoding="UTF-8" standalone="no"?>
<!DOCTYPE svg PUBLIC "-//W3C//DTD SVG 1.1//EN" "http://www.w3.org/Graphics/SVG/1.1/DTD/svg11.dtd">
<svg width="100%" height="100%" viewBox="0 0 713 600" version="1.1" xmlns="http://www.w3.org/2000/svg" xmlns:xlink="http://www.w3.org/1999/xlink" xml:space="preserve" xmlns:serif="http://www.serif.com/" style="fill-rule:evenodd;clip-rule:evenodd;stroke-linejoin:round;stroke-miterlimit:2;">
    <g>
        <g transform="matrix(1,0,0,1,-98.714,89.7293)">
            <path d="M686.278,268.597C699.843,268.597 710.84,257.158 710.84,243.048C710.84,228.937 699.843,217.499 686.278,217.499C672.713,217.499 661.716,228.937 661.716,243.048C661.716,257.158 672.713,268.597 686.278,268.597Z" style="fill:rgb(240,244,247);fill-rule:nonzero;"/>
        </g>
        <g transform="matrix(1,0,0,1,-419.865,407.757)">
            <path d="M525.795,121.744C534.85,121.744 542.191,114.108 542.191,104.689C542.191,95.27 534.85,87.635 525.795,87.635C516.74,87.635 509.399,95.27 509.399,104.689C509.399,114.108 516.74,121.744 525.795,121.744Z" style="fill:rgb(240,244,247);fill-rule:nonzero;"/>
        </g>
        <g transform="matrix(1,0,0,1,309.616,3.2472)">
            <path d="M70.581,59.68C81.656,59.68 90.635,50.341 90.635,38.82C90.635,27.3 81.656,17.96 70.581,17.96C59.505,17.96 50.527,27.3 50.527,38.82C50.527,50.341 59.505,59.68 70.581,59.68Z" style="fill:rgb(243,248,253);fill-rule:nonzero;"/>
        </g>
        <g transform="matrix(1,0,0,1,309.616,3.2472)">
            <path d="M50.528,528.333C65.939,528.333 78.432,515.337 78.432,499.307C78.432,483.277 65.939,470.281 50.528,470.281C35.116,470.281 22.623,483.277 22.623,499.307C22.623,515.337 35.116,528.333 50.528,528.333Z" style="fill:rgb(240,244,247);fill-rule:nonzero;"/>
        </g>
        <g transform="matrix(1,0,0,1,309.616,3.2472)">
            <path d="M180.902,478.079C209.959,479.715 224.108,486.262 220.343,492.088C214.813,500.645 195.876,501.229 166.808,500.368C137.741,499.506 113.673,488.449 125.894,482.635C142.451,474.758 168.669,477.391 180.902,478.079Z" style="fill:rgb(243,248,253);"/>
        </g>
        <g transform="matrix(1,0,0,1,309.616,3.2472)">
            <path d="M170.691,386.075C180.078,386.075 218.273,385.215 224.154,394.036C230.887,404.138 234.835,416.399 234.835,429.61C234.835,464.126 207.897,492.145 174.717,492.145C141.537,492.145 114.599,464.126 114.599,429.61C114.599,416.809 118.305,404.904 124.66,394.986C128.699,388.684 157.639,386.075 170.691,386.075Z" style="fill:rgb(243,248,253);"/>
        </g>
        <g transform="matrix(1,0,0,1,309.616,3.2472)">
            <path d="M132.968,403.509C128.842,405.251 126.468,393.152 128.093,392.36C137.146,387.95 159.628,384.842 170.691,384.842C180.077,384.842 218.273,385.217 224.154,394.038C227.29,398.74 220.767,405.393 216.872,403.695C207.806,399.744 192.299,397.137 174.705,397.137C157.387,397.137 142.089,399.661 132.968,403.509Z" style="fill:rgb(240,244,247);"/>
        </g>
        <g transform="matrix(1,0,0,1,309.616,3.2472)">
            <path d="M218.827,392.368C223.109,392.42 222.777,391.97 224.154,394.038C230.887,404.139 234.835,416.398 234.835,429.611C234.835,464.124 207.897,492.144 174.718,492.144C156.933,492.144 140.942,484.095 129.929,471.307C138.963,476.951 149.529,480.195 160.821,480.195C194.001,480.195 220.938,452.175 220.938,417.662C220.938,408.165 222.476,400.433 218.827,392.368Z" style="fill:rgb(240,244,247);"/>
        </g>
        <g transform="matrix(1,0,0,1,309.616,3.2472)">
            <path d="M174.705,382.486C202.625,382.486 225.292,389.049 225.292,397.137C225.292,405.223 202.625,411.788 174.705,411.788C146.783,411.788 124.116,405.223 124.116,397.137C124.116,389.049 146.783,382.486 174.705,382.486ZM174.705,384.793C199.057,384.793 218.827,390.324 218.827,397.137C218.827,403.948 199.057,409.481 174.705,409.481C150.353,409.481 130.581,403.948 130.581,397.137C130.581,390.324 150.353,384.793 174.705,384.793Z" style="fill:rgb(243,248,253);"/>
        </g>
        <g transform="matrix(1,0,0,1,309.616,3.2472)">
            <path d="M153.785,408.005C154.723,380.287 130.648,364.423 99.625,383.555C90.05,390.262 78.525,394.177 66.127,394.177C32.982,394.177 6.07,366.183 6.07,331.706C6.07,310.17 16.57,291.165 32.531,279.928C83.2,243.309 197.12,254.293 170.832,409.432C164.707,409.285 158.938,408.785 153.785,408.005Z" style="fill:rgb(243,248,253);"/>
        </g>
        <g transform="matrix(1,0,0,1,309.616,3.2472)">
            <path d="M179.275,409.414C177.673,393.307 129.795,112.414 278.633,64.385C284.032,62.216 289.766,60.745 295.728,60.082L295.731,60.082C296.158,60.002 296.592,59.959 297.028,59.95C298.998,59.771 300.991,59.68 303,59.68C340.376,59.68 370.72,91.243 370.72,130.119C370.72,165.4 345.73,194.655 313.168,199.768C261.075,212.989 181.89,257.219 185.329,409.12C180.908,409.706 184.354,409.267 179.275,409.414Z" style="fill:rgb(243,248,253);"/>
        </g>
        <g transform="matrix(1,0,0,1,309.616,3.2472)">
            <path d="M164.453,409.146C169.547,379.376 194.4,255.364 113.238,231.249C112.01,230.949 110.795,230.616 109.594,230.25C81.485,221.676 60.939,194.637 60.939,162.646C60.939,123.769 91.283,92.206 128.656,92.206C128.733,92.206 128.807,92.207 128.882,92.207C161.225,92.272 205.24,106.641 215.829,162.205C225.952,215.33 209.103,344.876 185.329,409.12C181.923,409.355 178.365,409.481 174.705,409.481C171.175,409.481 167.743,409.365 164.453,409.146Z" style="fill:rgb(240,244,247);"/>
        </g>
    </g>
</svg>
