<svg width="141" height="141" viewBox="0 0 141 141" fill="none" xmlns="http://www.w3.org/2000/svg">
<g clip-path="url(#clip0_13_160)">
<path d="M37.1444 68.2611C47.5444 88.7 64.3 105.456 84.7389 115.856L100.628 99.9667C102.65 97.9445 105.467 97.3667 107.994 98.1611C116.083 100.833 124.75 102.278 133.778 102.278C135.693 102.278 137.53 103.039 138.885 104.393C140.239 105.748 141 107.585 141 109.5V134.778C141 136.693 140.239 138.53 138.885 139.885C137.53 141.239 135.693 142 133.778 142C101.215 142 69.9861 129.065 46.9608 106.039C23.9355 83.0139 11 51.7849 11 19.2222C11 17.3068 11.7609 15.4698 13.1153 14.1153C14.4698 12.7609 16.3068 12 18.2222 12H43.5C45.4155 12 47.2525 12.7609 48.6069 14.1153C49.9613 15.4698 50.7222 17.3068 50.7222 19.2222C50.7222 28.25 52.1667 36.9167 54.8389 45.0056C55.6333 47.5333 55.0556 50.35 53.0333 52.3722L37.1444 68.2611Z" fill="black" opacity="0.05"/>
</g>
<defs>
<clipPath id="clip0_13_160">
<rect width="141" height="141" fill="white"/>
</clipPath>
</defs>
</svg>
