<svg width="713" height="600" fill="none" viewBox="0 0 713 600" xmlns="http://www.w3.org/2000/svg"><g clip-path="url(#prefix__clip0_29_4)"><path d="M686.278 268.597c13.565 0 24.562-11.439 24.562-25.549 0-14.111-10.997-25.549-24.562-25.549-13.565 0-24.562 11.438-24.562 25.549 0 14.11 10.997 25.549 24.562 25.549z" fill="#C6E1B9"/><path d="M525.795 121.744c9.055 0 16.396-7.636 16.396-17.055s-7.341-17.054-16.396-17.054-16.396 7.635-16.396 17.054c0 9.419 7.341 17.055 16.396 17.055z" fill="#84B7E8"/><path d="M70.58 59.68c11.076 0 20.055-9.339 20.055-20.86 0-11.52-8.979-20.86-20.055-20.86-11.075 0-20.053 9.34-20.053 20.86 0 11.521 8.978 20.86 20.053 20.86z" fill="#F3F8FD"/><path d="M50.528 528.333c15.41 0 27.904-12.996 27.904-29.026s-12.493-29.026-27.904-29.026c-15.412 0-27.905 12.996-27.905 29.026s12.493 29.026 27.905 29.026z" fill="#C6E1B9"/><path d="M650.404 474.133c6.888 0 12.472-5.591 12.472-12.487s-5.584-12.486-12.472-12.486-12.471 5.59-12.471 12.486c0 6.896 5.583 12.487 12.471 12.487z" fill="#F7E5D0"/><path fill-rule="evenodd" clip-rule="evenodd" d="M650.405 414.781c3.895-16.628 8.731-19.526 14.186-19.25 5.459.276 8.265 9.141 3.742 24.169-2.141 7.118-9.354 20.332-13.562 19.707-4.21-.627-7.326-11.977-4.366-24.626z" fill="#F9CDA7"/><path fill-rule="evenodd" clip-rule="evenodd" d="M637.998 502.977c1.464 17.032 5.861 20.698 11.339 21.34 5.48.643 9.565-7.619 7.243-23.18-1.099-7.371-6.365-21.596-10.649-21.686-4.287-.088-9.044 10.57-7.933 23.526z" fill="#F7E5D0"/><path fill-rule="evenodd" clip-rule="evenodd" d="M690.336 453.684c15.258-2.079 19.083 1.009 20.378 5.627 1.295 4.619-5.47 9.781-19.542 10.828-6.664.497-19.944-1.269-20.592-4.961-.646-3.696 8.15-9.91 19.756-11.494zM610.839 465.585c-13.56-1.521-16.195-4.854-16.331-8.904-.136-4.052 6.775-6.846 19.096-4.732 5.835 1.001 16.88 5.248 16.656 8.406-.227 3.159-9.106 6.384-19.421 5.23z" fill="#F9CDA7"/><path fill-rule="evenodd" clip-rule="evenodd" d="M674.365 433.575c8.053-7.327 11.844-6.91 14.881-4.539 3.038 2.372 1.548 8.268-6.306 14.482-3.719 2.943-12.483 7.088-14.681 5.038-2.199-2.051-.018-9.406 6.106-14.981zM634.365 434.707c-5.633-9.427-9.381-10.156-12.962-8.786-3.582 1.37-3.828 7.469 1.931 15.768 2.726 3.931 9.943 10.517 12.629 9.206 2.687-1.313 2.685-9.017-1.598-16.188z" fill="#F7E5D0"/><path fill-rule="evenodd" clip-rule="evenodd" d="M676.094 486.984c6.543 10.368 5.523 14.669 2.546 17.81-2.979 3.142-9.004.545-14.397-9.426-2.554-4.722-5.614-15.431-3.106-17.655 2.511-2.224 9.978 1.387 14.957 9.271z" fill="#F9CDA7"/><path fill-rule="evenodd" clip-rule="evenodd" d="M623.807 488.908c-9.041 6.026-12.72 5.046-15.364 2.25-2.645-2.798-.297-8.395 8.381-13.351 4.109-2.348 13.377-5.126 15.241-2.773 1.865 2.356-1.383 9.289-8.258 13.874z" fill="#F7E5D0"/><path fill-rule="evenodd" clip-rule="evenodd" d="M180.902 478.079c29.057 1.636 43.206 8.183 39.441 14.009-5.53 8.557-24.467 9.141-53.535 8.28-29.067-.862-53.135-11.919-40.914-17.733 16.557-7.877 42.775-5.244 55.008-4.556z" fill="#F3F8FD"/><path fill-rule="evenodd" clip-rule="evenodd" d="M170.691 386.075c9.387 0 47.582-.86 53.463 7.961 6.733 10.102 10.681 22.363 10.681 35.574 0 34.516-26.938 62.535-60.118 62.535-33.18 0-60.118-28.019-60.118-62.535 0-12.801 3.706-24.706 10.061-34.624 4.039-6.302 32.979-8.911 46.031-8.911z" fill="#B9D3EC"/><path fill-rule="evenodd" clip-rule="evenodd" d="M132.968 403.509c-4.126 1.742-6.5-10.357-4.875-11.149 9.053-4.41 31.535-7.518 42.598-7.518 9.386 0 47.582.375 53.463 9.196 3.136 4.702-3.387 11.355-7.282 9.657-9.066-3.951-24.573-6.558-42.167-6.558-17.318 0-32.616 2.524-41.737 6.372z" fill="#84B7E8"/><path fill-rule="evenodd" clip-rule="evenodd" d="M218.827 392.368c4.282.052 3.95-.398 5.327 1.67 6.733 10.101 10.681 22.36 10.681 35.573 0 34.513-26.938 62.533-60.117 62.533-17.785 0-33.776-8.049-44.789-20.837 9.034 5.644 19.6 8.888 30.892 8.888 33.18 0 60.117-28.02 60.117-62.533 0-9.497 1.538-17.229-2.111-25.294z" fill="#84B7E8"/><path fill-rule="evenodd" clip-rule="evenodd" d="M174.705 382.486c27.92 0 50.587 6.563 50.587 14.651 0 8.086-22.667 14.651-50.587 14.651-27.922 0-50.589-6.565-50.589-14.651 0-8.088 22.667-14.651 50.589-14.651zm0 2.307c24.352 0 44.122 5.531 44.122 12.344 0 6.811-19.77 12.344-44.122 12.344s-44.124-5.533-44.124-12.344c0-6.813 19.772-12.344 44.124-12.344z" fill="#B9D3EC"/><path fill-rule="evenodd" clip-rule="evenodd" d="M153.785 408.005c.938-27.718-23.137-43.582-54.16-24.45-9.575 6.707-21.1 10.622-33.498 10.622-33.145 0-60.057-27.994-60.057-62.471 0-21.536 10.5-40.541 26.46-51.778 50.67-36.619 164.59-25.635 138.302 129.504-6.125-.147-11.894-.647-17.047-1.427z" fill="#F3F8FD"/><path fill-rule="evenodd" clip-rule="evenodd" d="M179.275 409.414c-1.602-16.107-49.48-297 99.358-345.029a65.119 65.119 0 0117.095-4.303h.003a7.91 7.91 0 011.297-.132c1.97-.179 3.963-.27 5.972-.27 37.376 0 67.72 31.563 67.72 70.439 0 35.281-24.99 64.536-57.552 69.649-52.093 13.221-131.278 57.451-127.839 209.352-4.421.586-.975.147-6.054.294z" fill="#F3F8FD"/><path fill-rule="evenodd" clip-rule="evenodd" d="M164.453 409.146c5.094-29.77 29.947-153.782-51.215-177.897a67.239 67.239 0 01-3.644-.999c-28.109-8.574-48.655-35.613-48.655-67.604 0-38.877 30.344-70.44 67.717-70.44h.226c32.343.066 76.358 14.435 86.947 69.999 10.123 53.125-6.726 182.671-30.5 246.915-3.406.235-6.964.361-10.624.361-3.53 0-6.962-.116-10.252-.335z" fill="#DEECF9"/><path fill-rule="evenodd" clip-rule="evenodd" d="M405.188 506.862c96.536 5.433 143.539 27.185 131.033 46.54-18.372 28.428-81.286 30.367-177.853 27.506-96.569-2.861-176.526-39.595-135.926-58.911 55.007-26.169 142.106-17.423 182.746-15.135z" fill="#F3F8FD"/><path fill-rule="evenodd" clip-rule="evenodd" d="M470.76 336.09c22.365 9.172 84.288 119.486 70.805 138.331-7.185 10.04-39.955 12.61-44.523 9.103-4.568-3.507-60.576-127.642-58.363-138.915 2.213-11.275 18.09-14.256 32.081-8.519z" fill="#F7A258"/><path fill-rule="evenodd" clip-rule="evenodd" d="M463.468 343.517c4.863-1.164 9.644-2.622 14.256-4.413 1.248-.485 12.48 13.738 11.284 14.349-.865.442-1.744.87-2.627 1.281-1.839.864-3.193 2.562-3.675 4.601a7.048 7.048 0 001.216 5.846c25.823 35.104 57.711 99.459 49.121 115.065-12.42 5.084-32.495 5.967-35.996 3.278-4.57-3.508-60.576-127.642-58.363-138.915a12.18 12.18 0 011.372-3.721c6.186-1.864 14.217-1.291 21.71 1.78.543.225 1.114.509 1.702.849z" fill="#E78F44"/><path fill-rule="evenodd" clip-rule="evenodd" d="M341.281 303.523c-42.809 31.806-88.439 146.799-48.548 185.555 39.891 38.753 143.058 50.297 173.467 36.404 49.976-22.832 20.521-172.245-18.626-199.253-30.897-21.318-68.382-50.873-106.293-22.706zM388.844 213.267c-20.693 5.128-43.916-3.503-50.94-24.603-7.215-21.67 6.33-43.203 28.528-49.337 23.501-6.496 43.203 12.14 46.411 28.032 3.34 16.535-.565 40.098-23.999 45.908z" fill="#F7A258"/><path fill-rule="evenodd" clip-rule="evenodd" d="M373.86 337.06c29.942 14.275 102.661 22.879 133.176-22.066 30.989-45.641-9.406-96.388-53.058-118.905-34.567-17.834-105.571-2.22-128.271 32.673-24.987 38.407 3.268 86.898 48.153 108.298z" fill="#F7A258"/><path fill-rule="evenodd" clip-rule="evenodd" d="M502.545 275.572l-11.329-41.238c3.643-18.283 19.221-35.964 41.881-35.858 22.66.108 36.214 19.358 36.822 40.88.608 21.521-11.728 46.354-38.643 46.354-14.284 0-21.365-3.861-28.731-10.138z" fill="#F7A258"/><path fill-rule="evenodd" clip-rule="evenodd" d="M502.987 242.094c2.719 6.762 5.957 15.382 8.029 19.829 1.58 3.393 13.251 5.951 23.046 2.826 13.014-4.148 18.103-16.422 14.542-28.317-3.158-10.545-13.574-17.498-27.748-14.378-11.066 2.436-20.589 13.276-17.869 20.04z" fill="#FAC496"/><path d="M429.947 212.24c20.719 8.576 44.635-3.557 53.418-27.1 8.783-23.543-.893-49.58-21.612-58.156-20.719-8.575-44.635 3.558-53.418 27.101-8.783 23.542.893 49.58 21.612 58.155z" fill="#DEECF9"/><path fill-rule="evenodd" clip-rule="evenodd" d="M445.854 169.612V124.04c-14.628 2.032-25.828 9.577-33.559 22.697l33.559 22.875z" fill="#fff"/><path d="M234.414 233.936c12.415 4.327 27.062-6.842 32.716-24.947 5.653-18.105.173-36.29-12.242-40.618-12.414-4.327-27.062 6.842-32.715 24.947-5.654 18.105-.173 36.29 12.241 40.618z" fill="#8E9DAA"/><path fill-rule="evenodd" clip-rule="evenodd" d="M279.894 418.144c-.429 2.349 12.805 2.48 13.231.132 6.898-37.979 26.717-80.165 49.069-103.416 1.658-1.724-4.461-8.56-6.235-6.968-24.337 21.803-48.406 68.263-56.065 110.252z" fill="#F9CDA7"/><path fill-rule="evenodd" clip-rule="evenodd" d="M328.074 315.81c12.845 18.424-12.708 49.206-21.139 51.293-8.431 2.088-77.237-47.481-78.078-66.6-.617-14.055 6.245-25.119 14.274-31.906 8.029-6.788 25.379-14.443 34.254-10.685 8.875 3.758 40.065 32.095 50.689 57.898z" fill="#F7A258"/><path fill-rule="evenodd" clip-rule="evenodd" d="M389.559 239.027c1.571-3.746-.123-8.154-3.78-9.849l-.002-.001c-3.657-1.694-7.898-.034-9.47 3.711l-2.529 6.027c-1.571 3.745.122 8.153 3.78 9.848l.002.001c3.657 1.694 7.898.034 9.469-3.711l2.53-6.026zM437.507 257.848c1.571-3.745-.122-8.154-3.78-9.848l-.002-.001c-3.657-1.694-7.898-.035-9.469 3.71l-2.53 6.027c-1.571 3.745.123 8.154 3.78 9.848l.002.001c3.657 1.695 7.898.035 9.47-3.71l2.529-6.027z" fill="#2B1A0B"/><path fill-rule="evenodd" clip-rule="evenodd" d="M530.207 198.551a42.711 42.711 0 012.717-.075c22.66.108 36.216 19.359 36.822 40.88.608 21.521-11.728 46.354-38.643 46.354-10.892 0-13.622-.049-19.455-3.9 1.261-5.613.881-14.553.276-18.032-.045-.25.486-.333.719-.224 7.992 3.701 20.606 3.042 26.642-1.131 17.239-11.918 19.7-37.615 3.853-54.463-3.942-4.191-8.331-7.283-12.931-9.409z" fill="#E78F44"/><path fill-rule="evenodd" clip-rule="evenodd" d="M392.323 191.152l-26.27 7.683s-8.716-7.791-10.376-13.291c-2.045-6.766-.288-21.008 14.84-25.034 15.015-3.995 22.62 9.2 24.008 15.59.995 4.585-2.202 15.052-2.202 15.052z" fill="#FAC496"/><path fill-rule="evenodd" clip-rule="evenodd" d="M350.808 147.185c4.449-3.516 9.734-6.23 15.626-7.859 18.008-4.976 33.786 4.801 41.621 16.793.992 1.518-3.523 14.048-2.771 17.764 1.669 8.267.394 5.738 1.245 15.281.127 1.415-14.698 4.367-14.199 1.959 1.6-7.737 3.024-10.834 2.104-15.403-3.134-15.513-20.866-33.723-43.626-28.535z" fill="#E78F44"/><path d="M197.385 243.287c21.478 7.487 46.326-10.258 55.498-39.635 9.173-29.377-.803-59.262-22.281-66.75-21.478-7.488-46.325 10.257-55.497 39.635-9.173 29.377.802 59.262 22.28 66.75z" fill="#DEECF9"/><path fill-rule="evenodd" clip-rule="evenodd" d="M212.841 191.125l8.754-56.179c-20.919 5.315-34.835 15.487-41.098 30.965l32.344 25.214zM212.873 191.122l-8.434 54.12c20.921-5.315 34.515-13.428 40.778-28.906l-32.344-25.214z" fill="#fff"/><path fill-rule="evenodd" clip-rule="evenodd" d="M399.18 355.922c25.048 5.923 39.583 40.23 30.683 75.064-7.395 28.937-34.276 34.829-54.871 30.049-20.593-4.78-46.17-26.557-39.718-57.155 8.287-39.318 30.766-55.792 63.906-47.958zM368.988 305.665c18.838 11.25 44.97 12.16 51.476 1.251 6.793-11.395 5.161-37.841-17.968-48.161-23.131-10.321-42.053 2.27-47.564 12.004-7.208 12.735-.273 26.348 14.056 34.906z" fill="#F7E5D0"/><path fill-rule="evenodd" clip-rule="evenodd" d="M350.768 255.536c-6.379-1.469-8.465-6.065-7.094-8.246 1.482-2.356 6.352-3.398 11.261-1.999 4.799 1.37 8.793 5.046 7.789 7.633-1.406 3.615-7.318 3.681-11.956 2.612zM438.79 294.477c-5.444-3.775-5.858-8.896-3.859-10.443 2.16-1.67 7.034-.832 11.134 2.327 4.007 3.089 6.5 8.056 4.709 10.123-2.508 2.888-8.027.738-11.984-2.007z" fill="#F9CDA7"/><path fill-rule="evenodd" clip-rule="evenodd" d="M517.851 284.502l-5.952-2.217s-.134.367-.203.55a71.66 71.66 0 01-2.588 6.029c-23.796 49.141-98.105 46.97-129.744 37.455-15.639-4.702-32.662-16.871-45.608-29.22a2.376 2.376 0 00-3.27-.026c-.936.865-1.094 2.323-.367 3.381l.002.005c10.289 14.974 25.667 27.984 43.742 36.601 29.942 14.275 102.663 22.879 133.178-22.066 6.662-9.812 10.024-19.859 10.766-29.811l.044-.681z" fill="#E78F44"/><path fill-rule="evenodd" clip-rule="evenodd" d="M464.855 346.65c-1.089-1.822-3.322-2.5-5.181-1.571-1.861.929-2.749 3.164-2.064 5.187 17.447 52.858 20.992 121.368-11.026 137.459-28.218 14.182-121.946 8.176-167.065-23.813 2.297 10.032 6.58 18.67 13.266 25.166 39.894 38.753 143.058 50.297 173.467 36.404 42.24-19.296 27.738-129.017-1.397-178.832z" fill="#E78F44"/><path fill-rule="evenodd" clip-rule="evenodd" d="M331.226 443.769c-8.098-14.481-9.305-16.958-19.991-24.986-15.894 0-34.731-2.654-63.342 2.857-7.307 49.143 2.761 102.495 8.014 115.357 29.545-3.95 67.053-17.911 75.319-27.831 8.266-9.921 9.75-45.926 0-65.397z" fill="#F7A258"/><path fill-rule="evenodd" clip-rule="evenodd" d="M216.797 477.035c.132-17.192 9.043-55.552 35.039-55.729 28.033-.192 35.332 37.621 35.717 57.845.291 15.153-7.008 57.616-31.646 57.846-25.772.238-39.336-30.57-39.11-59.962z" fill="#F7A258"/><path fill-rule="evenodd" clip-rule="evenodd" d="M227.029 494.575c.315 2.372-1.228 4.576-3.494 4.996-2.265.418-4.446-1.097-4.937-3.435-1.248-6.209-1.853-12.69-1.804-19.1.132-17.191 9.041-55.552 35.038-55.73 5.476-.037 10.16 1.375 14.16 3.824 1.315.8 1.915 2.447 1.437 3.954-.477 1.505-1.901 2.457-3.417 2.284a34.427 34.427 0 00-3.478-.16c-25.38.168-34.076 35.845-34.207 51.833a84.57 84.57 0 00.702 11.534z" fill="#F9CDA7"/><path fill-rule="evenodd" clip-rule="evenodd" d="M513.033 457.708c15.794 11.239-38.517 112.273-56.562 106.866-18.047-5.404-50.875-30.962-54.353-40.356-3.476-9.397-2.072-31.047 6.56-45.066l47.793-41.476c18.224-.478 45.886 12.434 56.562 20.032z" fill="#F7A258"/><path fill-rule="evenodd" clip-rule="evenodd" d="M278.326 519.841c2.553-5.012 6.972-8.716 12.224-10.241 20.744-6.047 39.591-14.566 45.159-21.25.749-.898 1.441-2.011 2.074-3.304-.673 10.626-2.98 19.821-6.56 24.121-7.741 9.288-41.132 22.125-69.605 26.959 7.287-2.23 12.735-8.514 16.708-16.285zM443.918 495.811c20.097-36.404 50.135-50.106 69.836-37.666 18.823 11.884 14.128 45.143-.551 72.045-13.796 25.286-42.893 42.751-61.838 32.289-13.5-7.459-24.116-36.472-7.447-66.668z" fill="#E78F44"/><path fill-rule="evenodd" clip-rule="evenodd" d="M277.39 257.912c-7.582-4.145-23.521.932-34.254 10.684-10.733 9.756-16.995 26.456-14.234 32.459 5.578 12.12 24.35 4.697 38.569-9.084 13.405-12.992 17.831-29.734 9.919-34.059z" fill="#F9CDA7"/><path fill-rule="evenodd" clip-rule="evenodd" d="M255.896 336.046s-9.544-12.93-12.239-13.18c-20.511-1.915-46.158 4.439-60.69 15.598-7.545 5.794-12.19 12.925-12.778 20.647-.402 5.321 1.047 11.051 5.166 16.982 6.997 10.075 18.898 15.665 32.289 16.233 29.587 1.254 66.588-22.079 67.091-71.896.288-28.369-6.592-43.322-14.11-57.55-6.274-11.879-13.095-23.181-15.787-42.772-.258-1.884-9.607 6.241-8.542 11.01 3.503 15.679 9.547 26.108 15.271 36.939 6.825 12.922 13.093 26.497 12.832 52.259-.427 42.152-31.299 62.327-56.333 61.266-10.021-.426-19.095-4.246-24.33-11.784-2.404-3.466-3.476-6.733-3.24-9.841.374-4.924 3.801-9.146 8.612-12.842 14.447-11.097 41.422-16.659 60.196-12.54l6.592 1.471z" fill="#2B1A0B"/><path fill-rule="evenodd" clip-rule="evenodd" d="M458.148 564.987a24.299 24.299 0 01-6.783-2.508c-13.5-7.456-24.116-36.472-7.448-66.665 20.097-36.405 50.133-50.109 69.838-37.667 13.321 8.411 14.862 27.529 9.421 47.528 2.166-14.277-.43-27.003-10.225-33.189-17.43-11.005-44 1.117-61.777 33.321-14.748 26.708-5.354 52.377 6.587 58.971.127.072.256.139.387.209z" fill="#F7A258"/><path fill-rule="evenodd" clip-rule="evenodd" d="M458.446 538.467c12.909 3.866 15.71 31.403-1.972 26.107-18.045-5.404-50.875-30.962-54.351-40.356-2.449-6.617-2.476-19.315.737-31.143.295 1.913.709 3.614 1.233 5.036 3.478 9.394 36.306 34.951 54.353 40.356z" fill="#E78F44"/><path fill-rule="evenodd" clip-rule="evenodd" d="M408.199 189.028c2.868-.217 6.58 9.827 4.811 9.892-8.826.33-17.966 1.595-26.928 3.714-25.208 5.956-49.011 18.667-60.484 36.299 0 0 0 .002-.008 0-.697 1.073-2.074 1.409-3.158.769s-1.513-2.042-.982-3.216a59.546 59.546 0 014.26-7.724c14.797-22.745 50.113-37.296 82.489-39.734zm53.105 21.361c-1.26-.751 5.33-6.948 7.714-5.319 9.031 6.165 17.544 13.459 24.858 21.547 1.288 1.435 1.248 3.673-.092 5.053a3.39 3.39 0 01-4.86.052c-8.287-8.222-17.767-15.467-27.62-21.333z" fill="#F9CDA7"/><path fill-rule="evenodd" clip-rule="evenodd" d="M386.1 263.413c3.326-3.346 18.951 3.106 19.408 7.401.607 5.719-11.626 11.3-16.666 8.602-4.989-2.669-7.61-11.11-2.742-16.003z" fill="#2B1A0B"/><path fill-rule="evenodd" clip-rule="evenodd" d="M384.299 261.493c-3.132 3.152-3.913 7.428-3.05 11.363.84 3.829 3.269 7.273 6.395 8.944 1.595.857 3.728 1.163 6.054.908 3.019-.332 6.394-1.593 9.052-3.367 3.539-2.359 5.665-5.7 5.331-8.832-.117-1.119-.706-2.39-1.849-3.607-1.732-1.845-4.961-3.794-8.418-5.161-3.486-1.378-7.184-2.151-9.732-1.882-1.643.174-2.928.775-3.783 1.634zm18.642 9.731c.014.478-.231.928-.544 1.377-.575.824-1.439 1.573-2.434 2.236-1.995 1.331-4.522 2.29-6.787 2.539-1.199.131-2.314.1-3.136-.341-1.865-.998-3.239-3.108-3.742-5.391-.477-2.178-.135-4.571 1.599-6.314.079-.079.217-.061.358-.089a5.201 5.201 0 011.048-.077c1.895.026 4.322.67 6.64 1.588 2.342.924 4.577 2.135 6.027 3.385.408.353.872.957.971 1.087z" fill="#2B1A0B"/><path class="prefix__svg-rotation" fill-rule="evenodd" clip-rule="evenodd" d="M520.218 287.472c3.206.605 6.835.93 11.065.93 28.605 0 41.872-26.25 41.228-49.12-.649-22.96-15.228-43.375-39.397-43.49-18.9-.09-33.167 11.48-40.271 25.865-5.97-6.185-12.613-11.86-19.607-16.875 5.143-5.08 9.387-11.49 12.214-18.98 9.508-25.156-.639-52.741-22.419-61.641-20.996-8.585-45.43 3.2-55.678 26.59-9.012-10.91-24.343-18.785-41.58-14.02-23.714 6.555-38.014 29.665-30.306 52.816 2.218 6.66 5.935 12.165 10.648 16.475-9.393 5.95-17.246 13.095-22.543 21.235-16.852 25.905-10.621 56.285 8.679 80.465a109.186 109.186 0 00-3.411 3.4c-7.018-14.695-19.842-29.815-31.078-40.61-8.26-7.935-15.706-13.525-19.396-15.085-3.973-1.685-9.463-1.46-15.195.065-8.055 2.145-16.615 6.75-21.664 11.02-8.581 7.255-15.887 19.095-15.226 34.115.168 3.84 2.632 8.86 6.877 14.365 9.005 11.675 26.015 26.175 41.427 37.29 7.204 5.195 14.06 9.65 19.589 12.75-7.352 16.275-13.16 33.725-16.428 50.545-8.796.29-18.718 1.195-30.206 3.4-9.185 1.49-16.212 7.545-21.38 15.58-8.49 13.195-11.868 31.77-11.95 42.46-.14 18.265 5.221 38.725 15.065 51.12 6.945 8.745 16.071 13.585 27.025 11.52 20.933-2.81 45.793-10.575 61.7-18.42 4.489-2.215 8.28-4.46 11.134-6.61 23.302 9.695 50.885 15.685 75.772 18.045 1.53 1.705 3.336 3.52 5.365 5.395 11.57 10.7 30.369 23.705 43.295 28.37.687.26 1.384.49 2.091.695l.24.065c6.898 1.92 14.613 1.155 22.328-1.75 14.315-5.39 28.639-18.185 37.229-33.925 8.316-15.245 13.464-32.49 13.243-46.955 6.657-1.94 12.32-4.865 14.949-8.54 1.774-2.485 2.605-6.27 2.365-11.115-.312-6.32-2.384-14.645-5.73-24.055-12.05-33.87-40.637-82.105-59.056-100.245 10.93-5.455 20.602-13.275 27.927-24.065 6.542-9.635 10.027-19.325 11.066-29.075zm-29.62-60.53c-6.427-6.875-13.728-13.13-21.448-18.55-11.714 9.23-26.818 12.26-40.469 6.68-10.383-4.245-18.122-12.74-22.35-23.19-18.743 1.705-38.344 7.445-54.032 16.515-.249.215-.532.38-.832.485-9.898 5.845-18.181 13.035-23.614 21.39-15.961 24.53-9.081 53.28 9.891 75.875l.118.14a104.69 104.69 0 0010.387 10.65c1.083.965 1.21 2.66.282 3.79-.928 1.125-2.561 1.26-3.645.295a110.047 110.047 0 01-9.231-9.25 103.6 103.6 0 00-4.965 5.08c-.125.135-.26.255-.403.36-.27.46-.676.84-1.19 1.07-1.311.585-2.831-.05-3.393-1.41-6.243-15.165-19.774-31.195-31.449-42.41-7.633-7.33-14.428-12.615-17.838-14.055-3.129-1.325-7.45-.905-11.965.295-7.314 1.945-15.099 6.105-19.685 9.985-7.476 6.32-13.899 16.61-13.323 29.695.134 3.045 2.377 6.88 5.746 11.245 8.761 11.36 25.346 25.425 40.34 36.235 7.94 5.725 15.43 10.54 21.076 13.525l.095.045c.061.03.121.065.179.1a57.31 57.31 0 003.633 1.755c1.115.485 2.086.84 2.891 1.04.404.105.714.22.938.165 2.606-.645 5.459-2.93 8.222-5.75a2.516 2.516 0 013.656.035c.999 1.055.984 2.76-.033 3.8-3.534 3.61-7.316 6.32-10.648 7.145-1.299.325-3.766-.065-7.013-1.47-.55-.24-1.129-.505-1.735-.795-6.976 15.46-12.529 32.01-15.747 48.015 10.825-.085 19.903.625 28.188.625 1.427 0 2.584 1.205 2.584 2.69 0 1.485-1.157 2.69-2.584 2.69-8.995 0-18.941-.865-31.095-.595a2.467 2.467 0 01-.385.01c-4.442.105-9.179.365-14.273.88 6.793 3.5 11.889 9.64 15.625 16.96.669 1.31.188 2.94-1.071 3.635-1.26.695-2.826.195-3.495-1.115-5.01-9.815-12.77-17.335-24.687-17.255-9.484.065-16.414 5.805-21.396 13.55-7.898 12.275-11 29.57-11.076 39.51-.131 17.01 4.714 36.11 13.881 47.655 5.715 7.195 13.151 11.365 22.17 9.645l.15-.025c20.415-2.73 44.684-10.295 60.206-17.95 4.667-2.305 8.526-4.575 11.161-6.73a2.53 2.53 0 01.397-.33c.76-.65 1.406-1.29 1.926-1.915 3.069-3.68 4.969-11.285 5.758-20.185 1.233-13.885-.448-30.925-6.097-42.21-.658-1.315-.166-2.94 1.099-3.625s2.827-.175 3.486 1.14c6.049 12.085 7.98 30.315 6.659 45.19-.89 10.03-3.329 18.53-6.738 22.89 20.798 8.325 44.81 13.7 67.046 16.205a11.604 11.604 0 01-.771-1.625c-3.661-9.895-2.295-32.72 6.795-47.485.769-1.245 2.37-1.61 3.572-.81 1.201.8 1.552 2.46.783 3.71-8.173 13.275-9.617 33.76-6.326 42.655.479 1.29 1.587 2.895 3.163 4.72.217.18.404.39.553.625 1.5 1.67 3.35 3.51 5.451 5.45 10.008 9.25 25.63 20.385 37.676 25.74a2.57 2.57 0 011.202.315c.908.505 1.846.935 2.802 1.295.62.22 1.221.415 1.807.595.02.005.044.01.063.02 5.922 1.645 12.57.875 19.213-1.625 13.276-5.005 26.524-16.92 34.494-31.525 8.527-15.635 13.651-33.46 12.387-47.725-.788-8.91-4.1-16.38-10.931-20.695a21.886 21.886 0 00-.639-.39l-.015-.01c-7.575-4.485-16.727-4.82-26.149-1.38-8.854 3.23-17.92 9.755-26.25 19.35a2.514 2.514 0 01-3.648.195c-1.058-.995-1.144-2.695-.188-3.795 8.989-10.36 18.819-17.34 28.375-20.825 4.009-1.46 7.979-2.315 11.83-2.55-1.337-.63-2.711-1.25-4.115-1.855a2.64 2.64 0 01-.745-.325c-11.272-4.815-24.275-8.76-34.33-8.495-1.428.035-2.615-1.14-2.649-2.62-.039-1.485 1.091-2.72 2.519-2.755 9.642-.255 21.861 3.13 32.936 7.53-2.677-34.47-13.199-71.595-27.048-94.98-8.248 2.09-16.795 3.21-25.298 3.56-1.423.055-2.63-1.1-2.683-2.58-.057-1.485 1.053-2.735 2.481-2.795 8.676-.355 17.425-1.535 25.803-3.79.159-.06.317-.1.476-.13a89.785 89.785 0 0012.209-4.285 2.86 2.86 0 01.471-.21c11.474-5.1 21.65-12.79 29.173-23.865 6.138-9.045 9.364-18.13 10.219-27.28-5.585-1.855-9.863-4.785-14.238-8.51-1.1-.945-1.264-2.64-.36-3.785a2.518 2.518 0 013.639-.375c6.941 5.915 13.627 9.53 27.091 9.53 25.226 0 36.628-23.42 36.061-43.59-.567-20.085-13.104-38.17-34.254-38.27-18.083-.085-31.359 11.905-37.046 26.045a2.604 2.604 0 01-.106.275 43.315 43.315 0 00-2.187 7.395c-.288 1.45-1.658 2.39-3.052 2.085-1.399-.3-2.298-1.725-2.009-3.175.461-2.305 1.1-4.6 1.908-6.85zm-14.541 116.035a93.837 93.837 0 01-8.566 3.105c14.161 24.67 24.847 63.255 27.202 98.68 8.182 3.6 15.325 7.555 19.718 10.665.231.14.457.28.687.425 7.826 4.94 12.027 13.21 13.234 23.245 4.951-1.5 9.181-3.505 11.166-6.28 1.211-1.69 1.514-4.325 1.351-7.63-.294-5.905-2.288-13.67-5.418-22.465-12.18-34.23-41.516-83.58-59.374-99.745zm-8.541-140.09c5.585-4.83 10.2-11.31 13.127-19.055 8.407-22.255-.236-46.791-19.506-54.671-19.271-7.875-41.656 3.975-50.063 26.236-.193.5-.37 1-.544 1.505a1.94 1.94 0 01-.081.229c-3.538 10.516-3.346 21.426-.087 30.761.063.14.116.29.159.445 3.538 9.805 10.484 17.82 20.054 21.73 12.459 5.095 26.226 1.935 36.671-6.95.087-.08.173-.16.27-.23zm-62.331-46.336c-7.532-10.685-21.827-19.115-38.085-14.625-20.681 5.715-33.471 25.67-26.748 45.861 2.12 6.365 5.836 11.505 10.541 15.38 15.77-8.87 35.044-14.635 53.664-16.515-2.6-9.355-2.568-19.856.628-30.101z" fill="#2B1A0B"/><path fill-rule="evenodd" clip-rule="evenodd" d="M233.95 236.877c5.404 1.665 11.192.775 16.612-2.225 7.929-4.38 15.101-13.36 18.798-25.015 3.698-11.655 3.071-23.31-.793-31.74-2.542-5.551-6.474-9.736-11.488-11.836-3.465-15.455-12.448-27.64-25.289-32.045-22.395-7.69-48.889 10.895-58.762 42.02-9.874 31.12.786 62.456 23.181 70.146 12.506 4.29 26.289.39 37.741-9.305zm-1.767-5.355c7.675-7.05 14.089-17.095 17.879-29.046 8.872-27.965.231-56.45-19.892-63.355-20.122-6.91-43.363 10.63-52.234 38.596-8.871 27.97-.23 56.45 19.893 63.355 11.234 3.86 23.441.095 33.573-8.85a2.59 2.59 0 01.781-.7zm26.033-58.706c1.126 9.82.165 20.595-3.245 31.345-3.562 11.231-9.288 20.826-16.207 28.146 3.124.16 6.321-.715 9.372-2.4 6.93-3.83 13.085-11.77 16.316-21.955 3.231-10.185 2.826-20.375-.551-27.74-1.396-3.05-3.305-5.601-5.685-7.396zM381.833 291.577a27.274 27.274 0 01-6.228-4.415 28.14 28.14 0 01-5.538-7.32c-.687-1.295-2.26-1.775-3.51-1.06-1.25.715-1.707 2.355-1.02 3.655a33.446 33.446 0 006.591 8.7 32.193 32.193 0 0010.104 6.49h.002l.114.045c8.598 3.42 18.531 3.035 27.221-1.93 1.25-.715 1.707-2.355 1.019-3.655-.687-1.3-2.259-1.775-3.509-1.06-6.487 3.71-13.798 4.38-20.416 2.47l5.073-12.825c.543-1.37-.087-2.945-1.406-3.505-1.319-.565-2.83.09-3.374 1.46l-5.123 12.95zM355.823 326.275c-10.969 16.329-14.423 34.023-7.558 47.492 4.139 8.122 12.076 15 24.96 19.034-4.87 12.728-3.913 23.237.807 31.096 5.406 8.999 16.154 14.899 30.524 16.334 28.28 2.821 56.416-15.307 83.529-34.1 12.857-8.912 25.506-17.891 37.894-24.397 11.649-6.116 23.007-10.07 34.095-9.203 9.096.71 14.636 3.373 16.904 7.902 2.181 4.367 1.055 9.911-1.756 15.501-6.6 13.126-22.904 26.174-41.681 28.226-.019.003-.029.028-.034.075a266.527 266.527 0 014.307 10.171c.022 0 .047 0 .069-.005 21.062-3.551 38.988-18.546 46.499-33.484 4.595-9.136 5.334-18.311 1.766-25.446-3.486-6.971-11.306-12.572-25.3-13.663-10.346-.808-20.94 1.783-31.713 6.539-15.212 6.716-30.857 17.798-46.784 28.836-25.036 17.353-50.691 34.949-76.807 32.343-10.557-1.053-18.775-4.716-22.744-11.328-3.479-5.791-3.355-13.539.665-23.01 29.85 4.694 58.169-10.687 77.025-49.918a115.565 115.565 0 01-12.936 2.299c-17.259 30.771-41.685 42.202-67.426 36.016-11.84-2.844-19.236-7.998-22.73-14.853-5.282-10.364-1.312-24.087 7.136-36.647l-1.337-.901a116.778 116.778 0 01-7.374-4.909z" fill="#2B1A0B"/></g><defs><clipPath id="prefix__clip0_29_4"><path fill="#fff" d="M0 0h713v600H0z"/></clipPath></defs></svg>